<mxfile host="app.diagrams.net" modified="2024-07-01T11:00:17.458Z" agent="Mozilla/5.0 (Windows NT 10.0; Win64; x64; rv:127.0) Gecko/20100101 Firefox/127.0" etag="FxeS9TLEUXxAonBlnuCJ" version="24.5.4" type="device">
  <diagram name="Page-1" id="0YGfBth5zejyVaG7uDO7">
    <mxGraphModel dx="2687" dy="2055" grid="1" gridSize="10" guides="1" tooltips="1" connect="1" arrows="1" fold="1" page="1" pageScale="1" pageWidth="827" pageHeight="1169" math="0" shadow="0">
      <root>
        <mxCell id="0" />
        <mxCell id="1" parent="0" />
        <mxCell id="-sED9EeaokVKsFfiprO--3" value="Classname" style="swimlane;fontStyle=1;align=center;verticalAlign=top;childLayout=stackLayout;horizontal=1;startSize=26;horizontalStack=0;resizeParent=1;resizeParentMax=0;resizeLast=0;collapsible=1;marginBottom=0;whiteSpace=wrap;html=1;fontFamily=Fira Code;fontSource=https%3A%2F%2Ffonts.googleapis.com%2Fcss%3Ffamily%3DFira%2BCode;" parent="1" vertex="1">
          <mxGeometry x="635" y="-80" width="190" height="60" as="geometry" />
        </mxCell>
        <mxCell id="-sED9EeaokVKsFfiprO--5" value="" style="line;strokeWidth=1;fillColor=none;align=left;verticalAlign=middle;spacingTop=-1;spacingLeft=3;spacingRight=3;rotatable=0;labelPosition=right;points=[];portConstraint=eastwest;strokeColor=inherit;fontFamily=Fira Code;fontSource=https%3A%2F%2Ffonts.googleapis.com%2Fcss%3Ffamily%3DFira%2BCode;" parent="-sED9EeaokVKsFfiprO--3" vertex="1">
          <mxGeometry y="26" width="190" height="8" as="geometry" />
        </mxCell>
        <mxCell id="-sED9EeaokVKsFfiprO--6" value="&lt;font data-font-src=&quot;https://fonts.googleapis.com/css?family=Fira+Code&quot;&gt;ForEach(func(int, T))&lt;/font&gt;" style="text;strokeColor=none;fillColor=none;align=left;verticalAlign=top;spacingLeft=4;spacingRight=4;overflow=hidden;rotatable=0;points=[[0,0.5],[1,0.5]];portConstraint=eastwest;whiteSpace=wrap;html=1;fontFamily=Fira Code;fontSource=https%3A%2F%2Ffonts.googleapis.com%2Fcss%3Ffamily%3DFira%2BCode;" parent="-sED9EeaokVKsFfiprO--3" vertex="1">
          <mxGeometry y="34" width="190" height="26" as="geometry" />
        </mxCell>
        <mxCell id="-sED9EeaokVKsFfiprO--7" value="IIterable[T any]" style="swimlane;fontStyle=1;align=center;verticalAlign=top;childLayout=stackLayout;horizontal=1;startSize=26;horizontalStack=0;resizeParent=1;resizeParentMax=0;resizeLast=0;collapsible=1;marginBottom=0;whiteSpace=wrap;html=1;fontFamily=Fira Code;fontSource=https%3A%2F%2Ffonts.googleapis.com%2Fcss%3Ffamily%3DFira%2BCode;" parent="1" vertex="1">
          <mxGeometry x="635" y="-80" width="190" height="34" as="geometry" />
        </mxCell>
        <mxCell id="-sED9EeaokVKsFfiprO--9" value="" style="line;strokeWidth=1;fillColor=none;align=left;verticalAlign=middle;spacingTop=-1;spacingLeft=3;spacingRight=3;rotatable=0;labelPosition=right;points=[];portConstraint=eastwest;strokeColor=inherit;fontFamily=Fira Code;fontSource=https%3A%2F%2Ffonts.googleapis.com%2Fcss%3Ffamily%3DFira%2BCode;" parent="-sED9EeaokVKsFfiprO--7" vertex="1">
          <mxGeometry y="26" width="190" height="8" as="geometry" />
        </mxCell>
        <mxCell id="-sED9EeaokVKsFfiprO--16" value="ICollection[T any]" style="swimlane;fontStyle=1;align=center;verticalAlign=top;childLayout=stackLayout;horizontal=1;startSize=26;horizontalStack=0;resizeParent=1;resizeParentMax=0;resizeLast=0;collapsible=1;marginBottom=0;whiteSpace=wrap;html=1;fontFamily=Fira Code;fontSource=https%3A%2F%2Ffonts.googleapis.com%2Fcss%3Ffamily%3DFira%2BCode;" parent="1" vertex="1">
          <mxGeometry x="550" y="80" width="360" height="220" as="geometry" />
        </mxCell>
        <mxCell id="-sED9EeaokVKsFfiprO--18" value="" style="line;strokeWidth=1;fillColor=none;align=left;verticalAlign=middle;spacingTop=-1;spacingLeft=3;spacingRight=3;rotatable=0;labelPosition=right;points=[];portConstraint=eastwest;strokeColor=inherit;" parent="-sED9EeaokVKsFfiprO--16" vertex="1">
          <mxGeometry y="26" width="360" height="8" as="geometry" />
        </mxCell>
        <mxCell id="-sED9EeaokVKsFfiprO--19" value="&lt;div&gt;&amp;nbsp;&amp;nbsp;&amp;nbsp; Add(T) ICollection[T]&lt;br&gt;&amp;nbsp;&amp;nbsp; &amp;nbsp;AddAll(ICollection[T]) ICollection[T]&lt;br&gt;&amp;nbsp;&amp;nbsp; &amp;nbsp;Count() int&lt;br&gt;&amp;nbsp;&amp;nbsp; &amp;nbsp;Has(T) bool&lt;br&gt;&amp;nbsp;&amp;nbsp; &amp;nbsp;HasAll(ICollection[T]) bool&lt;/div&gt;&lt;div&gt;&amp;nbsp;&amp;nbsp;&amp;nbsp; HasAny(ICollection[T]) bool&lt;br&gt;&lt;/div&gt;&lt;div&gt;&amp;nbsp;&amp;nbsp;&amp;nbsp; Clear() ICollection[T]&lt;br&gt;&amp;nbsp;&amp;nbsp; &amp;nbsp;Filter(func(T) bool) ICollection[T]&lt;br&gt;&amp;nbsp;&amp;nbsp; &amp;nbsp;ToSlice() []T&lt;br&gt;&lt;/div&gt;&lt;div&gt;&amp;nbsp;&amp;nbsp; &amp;nbsp;IsEmpty() bool&lt;/div&gt;&lt;div&gt;&amp;nbsp;&amp;nbsp;&amp;nbsp; Clone() ICollection[T]&lt;br&gt;&lt;/div&gt;&lt;div&gt;&lt;br&gt;&lt;/div&gt;" style="text;strokeColor=none;fillColor=none;align=left;verticalAlign=top;spacingLeft=4;spacingRight=4;overflow=hidden;rotatable=0;points=[[0,0.5],[1,0.5]];portConstraint=eastwest;whiteSpace=wrap;html=1;fontFamily=Fira Code;fontSource=https%3A%2F%2Ffonts.googleapis.com%2Fcss%3Ffamily%3DFira%2BCode;" parent="-sED9EeaokVKsFfiprO--16" vertex="1">
          <mxGeometry y="34" width="360" height="186" as="geometry" />
        </mxCell>
        <mxCell id="-sED9EeaokVKsFfiprO--20" value="Extends" style="endArrow=block;endSize=16;endFill=0;html=1;rounded=0;entryX=0.5;entryY=1;entryDx=0;entryDy=0;exitX=0.5;exitY=0;exitDx=0;exitDy=0;" parent="1" source="-sED9EeaokVKsFfiprO--16" target="-sED9EeaokVKsFfiprO--3" edge="1">
          <mxGeometry width="160" relative="1" as="geometry">
            <mxPoint x="630" y="280" as="sourcePoint" />
            <mxPoint x="790" y="280" as="targetPoint" />
          </mxGeometry>
        </mxCell>
        <mxCell id="-sED9EeaokVKsFfiprO--24" value="List[T any]" style="swimlane;fontStyle=1;align=center;verticalAlign=top;childLayout=stackLayout;horizontal=1;startSize=26;horizontalStack=0;resizeParent=1;resizeParentMax=0;resizeLast=0;collapsible=1;marginBottom=0;whiteSpace=wrap;html=1;fontFamily=Fira Code;fontSource=https%3A%2F%2Ffonts.googleapis.com%2Fcss%3Ffamily%3DFira%2BCode;" parent="1" vertex="1">
          <mxGeometry x="-80" y="560" width="290" height="140" as="geometry" />
        </mxCell>
        <mxCell id="-sED9EeaokVKsFfiprO--25" value="&amp;nbsp;&amp;nbsp;&amp;nbsp; elements []T&lt;br&gt;&amp;nbsp;&amp;nbsp; &amp;nbsp;count&amp;nbsp;&amp;nbsp;&amp;nbsp; int" style="text;strokeColor=none;fillColor=none;align=left;verticalAlign=middle;spacingLeft=4;spacingRight=4;overflow=hidden;rotatable=0;points=[[0,0.5],[1,0.5]];portConstraint=eastwest;whiteSpace=wrap;html=1;fontFamily=Fira Code;fontSource=https%3A%2F%2Ffonts.googleapis.com%2Fcss%3Ffamily%3DFira%2BCode;" parent="-sED9EeaokVKsFfiprO--24" vertex="1">
          <mxGeometry y="26" width="290" height="54" as="geometry" />
        </mxCell>
        <mxCell id="-sED9EeaokVKsFfiprO--26" value="" style="line;strokeWidth=1;fillColor=none;align=left;verticalAlign=middle;spacingTop=-1;spacingLeft=3;spacingRight=3;rotatable=0;labelPosition=right;points=[];portConstraint=eastwest;strokeColor=inherit;fontFamily=Fira Code;fontSource=https%3A%2F%2Ffonts.googleapis.com%2Fcss%3Ffamily%3DFira%2BCode;" parent="-sED9EeaokVKsFfiprO--24" vertex="1">
          <mxGeometry y="80" width="290" height="8" as="geometry" />
        </mxCell>
        <mxCell id="-sED9EeaokVKsFfiprO--27" value="&lt;div&gt;New[T any]() *List[T]&lt;/div&gt;&lt;div&gt;From[T any](elements ...T) *List[T]&lt;br&gt;&lt;/div&gt;" style="text;strokeColor=none;fillColor=none;align=left;verticalAlign=top;spacingLeft=4;spacingRight=4;overflow=hidden;rotatable=0;points=[[0,0.5],[1,0.5]];portConstraint=eastwest;whiteSpace=wrap;html=1;fontFamily=Fira Code;fontSource=https%3A%2F%2Ffonts.googleapis.com%2Fcss%3Ffamily%3DFira%2BCode;" parent="-sED9EeaokVKsFfiprO--24" vertex="1">
          <mxGeometry y="88" width="290" height="52" as="geometry" />
        </mxCell>
        <mxCell id="-sED9EeaokVKsFfiprO--28" value="" style="endArrow=block;dashed=1;endFill=0;endSize=12;html=1;rounded=0;exitX=0.5;exitY=0;exitDx=0;exitDy=0;" parent="1" source="-sED9EeaokVKsFfiprO--24" target="-sED9EeaokVKsFfiprO--19" edge="1">
          <mxGeometry width="160" relative="1" as="geometry">
            <mxPoint x="330" y="460" as="sourcePoint" />
            <mxPoint x="425" y="390" as="targetPoint" />
          </mxGeometry>
        </mxCell>
        <mxCell id="-sED9EeaokVKsFfiprO--29" value="IIndexable[TIndex any, TValue any]" style="swimlane;fontStyle=1;align=center;verticalAlign=top;childLayout=stackLayout;horizontal=1;startSize=26;horizontalStack=0;resizeParent=1;resizeParentMax=0;resizeLast=0;collapsible=1;marginBottom=0;whiteSpace=wrap;html=1;fontFamily=Fira Code;fontSource=https%3A%2F%2Ffonts.googleapis.com%2Fcss%3Ffamily%3DFira%2BCode;" parent="1" vertex="1">
          <mxGeometry x="-180" y="1350" width="490" height="120" as="geometry" />
        </mxCell>
        <mxCell id="-sED9EeaokVKsFfiprO--30" value="" style="line;strokeWidth=1;fillColor=none;align=left;verticalAlign=middle;spacingTop=-1;spacingLeft=3;spacingRight=3;rotatable=0;labelPosition=right;points=[];portConstraint=eastwest;strokeColor=inherit;" parent="-sED9EeaokVKsFfiprO--29" vertex="1">
          <mxGeometry y="26" width="490" height="8" as="geometry" />
        </mxCell>
        <mxCell id="-sED9EeaokVKsFfiprO--31" value="&lt;blockquote&gt;Get(TIndex) TValue&lt;br&gt;Set(TIndex, TValue)&lt;br&gt;Find(predicate func(TValue) bool) TIndex&lt;br&gt;Remove(TIndex) TValue&lt;br&gt;&lt;/blockquote&gt;" style="text;strokeColor=none;fillColor=none;align=left;verticalAlign=top;spacingLeft=4;spacingRight=4;overflow=hidden;rotatable=0;points=[[0,0.5],[1,0.5]];portConstraint=eastwest;whiteSpace=wrap;html=1;fontFamily=Fira Code;fontSource=https%3A%2F%2Ffonts.googleapis.com%2Fcss%3Ffamily%3DFira%2BCode;" parent="-sED9EeaokVKsFfiprO--29" vertex="1">
          <mxGeometry y="34" width="490" height="86" as="geometry" />
        </mxCell>
        <mxCell id="-sED9EeaokVKsFfiprO--33" value="Set[T any]" style="swimlane;fontStyle=1;align=center;verticalAlign=top;childLayout=stackLayout;horizontal=1;startSize=26;horizontalStack=0;resizeParent=1;resizeParentMax=0;resizeLast=0;collapsible=1;marginBottom=0;whiteSpace=wrap;html=1;fontFamily=Fira Code;fontSource=https%3A%2F%2Ffonts.googleapis.com%2Fcss%3Ffamily%3DFira%2BCode;" parent="1" vertex="1">
          <mxGeometry x="750" y="560" width="360" height="220" as="geometry" />
        </mxCell>
        <mxCell id="-sED9EeaokVKsFfiprO--34" value="elements map[string]T&lt;br&gt;count&amp;nbsp;&amp;nbsp;&amp;nbsp; int" style="text;strokeColor=none;fillColor=none;align=left;verticalAlign=middle;spacingLeft=4;spacingRight=4;overflow=hidden;rotatable=0;points=[[0,0.5],[1,0.5]];portConstraint=eastwest;whiteSpace=wrap;html=1;fontFamily=Fira Code;fontSource=https%3A%2F%2Ffonts.googleapis.com%2Fcss%3Ffamily%3DFira%2BCode;" parent="-sED9EeaokVKsFfiprO--33" vertex="1">
          <mxGeometry y="26" width="360" height="54" as="geometry" />
        </mxCell>
        <mxCell id="-sED9EeaokVKsFfiprO--35" value="" style="line;strokeWidth=1;fillColor=none;align=left;verticalAlign=middle;spacingTop=-1;spacingLeft=3;spacingRight=3;rotatable=0;labelPosition=right;points=[];portConstraint=eastwest;strokeColor=inherit;fontFamily=Fira Code;fontSource=https%3A%2F%2Ffonts.googleapis.com%2Fcss%3Ffamily%3DFira%2BCode;" parent="-sED9EeaokVKsFfiprO--33" vertex="1">
          <mxGeometry y="80" width="360" height="8" as="geometry" />
        </mxCell>
        <mxCell id="-sED9EeaokVKsFfiprO--36" value="&lt;div&gt;New[T any]() *Set[T]&lt;/div&gt;&lt;div&gt;From[T any](elements ...T) *Set[T]&lt;br&gt;&lt;/div&gt;&lt;div&gt;&lt;br&gt;&lt;/div&gt;&lt;div&gt;Union(set *Set[T]) *Set[T]&lt;/div&gt;&lt;div&gt;Intersect(set *Set[T]) *Set[T]&lt;/div&gt;&lt;div&gt;Difference(set *Set[T]) *Set[T]&lt;/div&gt;&lt;div&gt;SymmetricDifference(set *Set[T]) *Set[T]&lt;br&gt;&lt;/div&gt;" style="text;strokeColor=none;fillColor=none;align=left;verticalAlign=top;spacingLeft=4;spacingRight=4;overflow=hidden;rotatable=0;points=[[0,0.5],[1,0.5]];portConstraint=eastwest;whiteSpace=wrap;html=1;fontFamily=Fira Code;fontSource=https%3A%2F%2Ffonts.googleapis.com%2Fcss%3Ffamily%3DFira%2BCode;" parent="-sED9EeaokVKsFfiprO--33" vertex="1">
          <mxGeometry y="88" width="360" height="132" as="geometry" />
        </mxCell>
        <mxCell id="-sED9EeaokVKsFfiprO--37" value="BTree[T any]" style="swimlane;fontStyle=1;align=center;verticalAlign=top;childLayout=stackLayout;horizontal=1;startSize=26;horizontalStack=0;resizeParent=1;resizeParentMax=0;resizeLast=0;collapsible=1;marginBottom=0;whiteSpace=wrap;html=1;fontFamily=Fira Code;fontSource=https%3A%2F%2Ffonts.googleapis.com%2Fcss%3Ffamily%3DFira%2BCode;" parent="1" vertex="1">
          <mxGeometry x="1170" y="560" width="290" height="140" as="geometry" />
        </mxCell>
        <mxCell id="-sED9EeaokVKsFfiprO--38" value="root&amp;nbsp; *TreeNode[T]&lt;br&gt;count int" style="text;strokeColor=none;fillColor=none;align=left;verticalAlign=middle;spacingLeft=4;spacingRight=4;overflow=hidden;rotatable=0;points=[[0,0.5],[1,0.5]];portConstraint=eastwest;whiteSpace=wrap;html=1;fontFamily=Fira Code;fontSource=https%3A%2F%2Ffonts.googleapis.com%2Fcss%3Ffamily%3DFira%2BCode;" parent="-sED9EeaokVKsFfiprO--37" vertex="1">
          <mxGeometry y="26" width="290" height="54" as="geometry" />
        </mxCell>
        <mxCell id="-sED9EeaokVKsFfiprO--39" value="" style="line;strokeWidth=1;fillColor=none;align=left;verticalAlign=middle;spacingTop=-1;spacingLeft=3;spacingRight=3;rotatable=0;labelPosition=right;points=[];portConstraint=eastwest;strokeColor=inherit;fontFamily=Fira Code;fontSource=https%3A%2F%2Ffonts.googleapis.com%2Fcss%3Ffamily%3DFira%2BCode;" parent="-sED9EeaokVKsFfiprO--37" vertex="1">
          <mxGeometry y="80" width="290" height="8" as="geometry" />
        </mxCell>
        <mxCell id="-sED9EeaokVKsFfiprO--40" value="&lt;div&gt;New[T any]() *BTree[T]&lt;/div&gt;&lt;div&gt;From[T any](elements ...T) *BTree[T]&lt;br&gt;&lt;/div&gt;" style="text;strokeColor=none;fillColor=none;align=left;verticalAlign=top;spacingLeft=4;spacingRight=4;overflow=hidden;rotatable=0;points=[[0,0.5],[1,0.5]];portConstraint=eastwest;whiteSpace=wrap;html=1;fontFamily=Fira Code;fontSource=https%3A%2F%2Ffonts.googleapis.com%2Fcss%3Ffamily%3DFira%2BCode;" parent="-sED9EeaokVKsFfiprO--37" vertex="1">
          <mxGeometry y="88" width="290" height="52" as="geometry" />
        </mxCell>
        <mxCell id="-sED9EeaokVKsFfiprO--41" value="HashMap[K any, V any]" style="swimlane;fontStyle=1;align=center;verticalAlign=top;childLayout=stackLayout;horizontal=1;startSize=26;horizontalStack=0;resizeParent=1;resizeParentMax=0;resizeLast=0;collapsible=1;marginBottom=0;whiteSpace=wrap;html=1;fontFamily=Fira Code;fontSource=https%3A%2F%2Ffonts.googleapis.com%2Fcss%3Ffamily%3DFira%2BCode;" parent="1" vertex="1">
          <mxGeometry x="260" y="560" width="450" height="260" as="geometry" />
        </mxCell>
        <mxCell id="-sED9EeaokVKsFfiprO--42" value="&amp;nbsp;&amp;nbsp;&amp;nbsp; elements map[string]Entry[K, V]&lt;br&gt;&amp;nbsp;&amp;nbsp; &amp;nbsp;count&amp;nbsp;&amp;nbsp;&amp;nbsp; int" style="text;strokeColor=none;fillColor=none;align=left;verticalAlign=middle;spacingLeft=4;spacingRight=4;overflow=hidden;rotatable=0;points=[[0,0.5],[1,0.5]];portConstraint=eastwest;whiteSpace=wrap;html=1;fontFamily=Fira Code;fontSource=https%3A%2F%2Ffonts.googleapis.com%2Fcss%3Ffamily%3DFira%2BCode;" parent="-sED9EeaokVKsFfiprO--41" vertex="1">
          <mxGeometry y="26" width="450" height="54" as="geometry" />
        </mxCell>
        <mxCell id="-sED9EeaokVKsFfiprO--43" value="" style="line;strokeWidth=1;fillColor=none;align=left;verticalAlign=middle;spacingTop=-1;spacingLeft=3;spacingRight=3;rotatable=0;labelPosition=right;points=[];portConstraint=eastwest;strokeColor=inherit;fontFamily=Fira Code;fontSource=https%3A%2F%2Ffonts.googleapis.com%2Fcss%3Ffamily%3DFira%2BCode;" parent="-sED9EeaokVKsFfiprO--41" vertex="1">
          <mxGeometry y="80" width="450" height="8" as="geometry" />
        </mxCell>
        <mxCell id="-sED9EeaokVKsFfiprO--44" value="&lt;div&gt;New[K any, V any]() *HashMap[K, V]&lt;/div&gt;&lt;div&gt;From[K any, V any](entries ...Entry[K, V]) *HashMap[K, V]&lt;br&gt;&lt;/div&gt;&lt;div&gt;&lt;br&gt;&lt;/div&gt;&lt;div&gt;Put(key K, value V) *HashMap[K, V]&lt;/div&gt;&lt;div&gt;GetKeys() []K&lt;/div&gt;&lt;div&gt;GetValues() []V&lt;/div&gt;&lt;div&gt;GetEntries() []Entry[K, V]&lt;br&gt;&lt;/div&gt;&lt;div&gt;HasKey(key K) bool&lt;br&gt;&lt;/div&gt;&lt;div&gt;HasAllKey(keys []K) bool&lt;/div&gt;&lt;div&gt;Remove(key K) V&lt;br&gt;&lt;/div&gt;" style="text;strokeColor=none;fillColor=none;align=left;verticalAlign=top;spacingLeft=4;spacingRight=4;overflow=hidden;rotatable=0;points=[[0,0.5],[1,0.5]];portConstraint=eastwest;whiteSpace=wrap;html=1;fontFamily=Fira Code;fontSource=https%3A%2F%2Ffonts.googleapis.com%2Fcss%3Ffamily%3DFira%2BCode;" parent="-sED9EeaokVKsFfiprO--41" vertex="1">
          <mxGeometry y="88" width="450" height="172" as="geometry" />
        </mxCell>
        <mxCell id="-sED9EeaokVKsFfiprO--45" value="" style="endArrow=block;dashed=1;endFill=0;endSize=12;html=1;rounded=0;" parent="1" source="-sED9EeaokVKsFfiprO--41" target="-sED9EeaokVKsFfiprO--19" edge="1">
          <mxGeometry width="160" relative="1" as="geometry">
            <mxPoint x="65" y="560" as="sourcePoint" />
            <mxPoint x="440" y="394" as="targetPoint" />
          </mxGeometry>
        </mxCell>
        <mxCell id="-sED9EeaokVKsFfiprO--46" value="" style="endArrow=block;dashed=1;endFill=0;endSize=12;html=1;rounded=0;exitX=0.5;exitY=0;exitDx=0;exitDy=0;" parent="1" source="-sED9EeaokVKsFfiprO--33" target="-sED9EeaokVKsFfiprO--19" edge="1">
          <mxGeometry width="160" relative="1" as="geometry">
            <mxPoint x="75" y="570" as="sourcePoint" />
            <mxPoint x="480" y="390" as="targetPoint" />
          </mxGeometry>
        </mxCell>
        <mxCell id="-sED9EeaokVKsFfiprO--47" value="" style="endArrow=block;dashed=1;endFill=0;endSize=12;html=1;rounded=0;exitX=0.5;exitY=0;exitDx=0;exitDy=0;entryX=0.856;entryY=1.018;entryDx=0;entryDy=0;entryPerimeter=0;" parent="1" source="-sED9EeaokVKsFfiprO--37" target="-sED9EeaokVKsFfiprO--19" edge="1">
          <mxGeometry width="160" relative="1" as="geometry">
            <mxPoint x="795" y="580" as="sourcePoint" />
            <mxPoint x="487" y="394" as="targetPoint" />
          </mxGeometry>
        </mxCell>
        <mxCell id="-sED9EeaokVKsFfiprO--48" value="" style="endArrow=block;dashed=1;endFill=0;endSize=12;html=1;rounded=0;entryX=0.5;entryY=0;entryDx=0;entryDy=0;" parent="1" source="-sED9EeaokVKsFfiprO--27" target="-sED9EeaokVKsFfiprO--29" edge="1">
          <mxGeometry width="160" relative="1" as="geometry">
            <mxPoint x="380" y="530" as="sourcePoint" />
            <mxPoint x="540" y="414" as="targetPoint" />
          </mxGeometry>
        </mxCell>
        <mxCell id="-sED9EeaokVKsFfiprO--49" value="" style="endArrow=block;dashed=1;endFill=0;endSize=12;html=1;rounded=0;entryX=0.75;entryY=0;entryDx=0;entryDy=0;" parent="1" source="-sED9EeaokVKsFfiprO--44" target="-sED9EeaokVKsFfiprO--29" edge="1">
          <mxGeometry width="160" relative="1" as="geometry">
            <mxPoint x="404" y="710" as="sourcePoint" />
            <mxPoint x="225" y="860" as="targetPoint" />
            <Array as="points">
              <mxPoint x="485" y="920" />
              <mxPoint x="188" y="920" />
            </Array>
          </mxGeometry>
        </mxCell>
        <mxCell id="WINF_wa8f1q5VdIjYKDe-1" value="IComparer[T any]" style="swimlane;fontStyle=1;align=center;verticalAlign=top;childLayout=stackLayout;horizontal=1;startSize=26;horizontalStack=0;resizeParent=1;resizeParentMax=0;resizeLast=0;collapsible=1;marginBottom=0;whiteSpace=wrap;html=1;fontFamily=Fira Code;fontSource=https%3A%2F%2Ffonts.googleapis.com%2Fcss%3Ffamily%3DFira%2BCode;" parent="1" vertex="1">
          <mxGeometry x="820" y="1490" width="290" height="66" as="geometry" />
        </mxCell>
        <mxCell id="WINF_wa8f1q5VdIjYKDe-3" value="" style="line;strokeWidth=1;fillColor=none;align=left;verticalAlign=middle;spacingTop=-1;spacingLeft=3;spacingRight=3;rotatable=0;labelPosition=right;points=[];portConstraint=eastwest;strokeColor=inherit;fontFamily=Fira Code;fontSource=https%3A%2F%2Ffonts.googleapis.com%2Fcss%3Ffamily%3DFira%2BCode;" parent="WINF_wa8f1q5VdIjYKDe-1" vertex="1">
          <mxGeometry y="26" width="290" height="8" as="geometry" />
        </mxCell>
        <mxCell id="WINF_wa8f1q5VdIjYKDe-4" value="Compare(T) int" style="text;strokeColor=none;fillColor=none;align=left;verticalAlign=top;spacingLeft=4;spacingRight=4;overflow=hidden;rotatable=0;points=[[0,0.5],[1,0.5]];portConstraint=eastwest;whiteSpace=wrap;html=1;fontFamily=Fira Code;fontSource=https%3A%2F%2Ffonts.googleapis.com%2Fcss%3Ffamily%3DFira%2BCode;" parent="WINF_wa8f1q5VdIjYKDe-1" vertex="1">
          <mxGeometry y="34" width="290" height="32" as="geometry" />
        </mxCell>
        <mxCell id="WINF_wa8f1q5VdIjYKDe-5" value="IHashCoder" style="swimlane;fontStyle=1;align=center;verticalAlign=top;childLayout=stackLayout;horizontal=1;startSize=26;horizontalStack=0;resizeParent=1;resizeParentMax=0;resizeLast=0;collapsible=1;marginBottom=0;whiteSpace=wrap;html=1;fontFamily=Fira Code;fontSource=https%3A%2F%2Ffonts.googleapis.com%2Fcss%3Ffamily%3DFira%2BCode;" parent="1" vertex="1">
          <mxGeometry x="1173" y="1490" width="290" height="66" as="geometry" />
        </mxCell>
        <mxCell id="WINF_wa8f1q5VdIjYKDe-6" value="" style="line;strokeWidth=1;fillColor=none;align=left;verticalAlign=middle;spacingTop=-1;spacingLeft=3;spacingRight=3;rotatable=0;labelPosition=right;points=[];portConstraint=eastwest;strokeColor=inherit;fontFamily=Fira Code;fontSource=https%3A%2F%2Ffonts.googleapis.com%2Fcss%3Ffamily%3DFira%2BCode;" parent="WINF_wa8f1q5VdIjYKDe-5" vertex="1">
          <mxGeometry y="26" width="290" height="8" as="geometry" />
        </mxCell>
        <mxCell id="WINF_wa8f1q5VdIjYKDe-7" value="GetHashCode() string" style="text;strokeColor=none;fillColor=none;align=left;verticalAlign=top;spacingLeft=4;spacingRight=4;overflow=hidden;rotatable=0;points=[[0,0.5],[1,0.5]];portConstraint=eastwest;whiteSpace=wrap;html=1;fontFamily=Fira Code;fontSource=https%3A%2F%2Ffonts.googleapis.com%2Fcss%3Ffamily%3DFira%2BCode;" parent="WINF_wa8f1q5VdIjYKDe-5" vertex="1">
          <mxGeometry y="34" width="290" height="32" as="geometry" />
        </mxCell>
        <mxCell id="WINF_wa8f1q5VdIjYKDe-8" value="Entry[K any, V any]" style="swimlane;fontStyle=1;align=center;verticalAlign=top;childLayout=stackLayout;horizontal=1;startSize=26;horizontalStack=0;resizeParent=1;resizeParentMax=0;resizeLast=0;collapsible=1;marginBottom=0;whiteSpace=wrap;html=1;fontFamily=Fira Code;fontSource=https%3A%2F%2Ffonts.googleapis.com%2Fcss%3Ffamily%3DFira%2BCode;" parent="1" vertex="1">
          <mxGeometry x="340" y="1080" width="290" height="190" as="geometry" />
        </mxCell>
        <mxCell id="WINF_wa8f1q5VdIjYKDe-9" value="&amp;nbsp;&amp;nbsp;&amp;nbsp; key&amp;nbsp;&amp;nbsp; K&lt;br&gt;&amp;nbsp;&amp;nbsp; &amp;nbsp;value V" style="text;strokeColor=none;fillColor=none;align=left;verticalAlign=middle;spacingLeft=4;spacingRight=4;overflow=hidden;rotatable=0;points=[[0,0.5],[1,0.5]];portConstraint=eastwest;whiteSpace=wrap;html=1;fontFamily=Fira Code;fontSource=https%3A%2F%2Ffonts.googleapis.com%2Fcss%3Ffamily%3DFira%2BCode;" parent="WINF_wa8f1q5VdIjYKDe-8" vertex="1">
          <mxGeometry y="26" width="290" height="54" as="geometry" />
        </mxCell>
        <mxCell id="WINF_wa8f1q5VdIjYKDe-10" value="" style="line;strokeWidth=1;fillColor=none;align=left;verticalAlign=middle;spacingTop=-1;spacingLeft=3;spacingRight=3;rotatable=0;labelPosition=right;points=[];portConstraint=eastwest;strokeColor=inherit;fontFamily=Fira Code;fontSource=https%3A%2F%2Ffonts.googleapis.com%2Fcss%3Ffamily%3DFira%2BCode;" parent="WINF_wa8f1q5VdIjYKDe-8" vertex="1">
          <mxGeometry y="80" width="290" height="8" as="geometry" />
        </mxCell>
        <mxCell id="WINF_wa8f1q5VdIjYKDe-11" value="&lt;div&gt;NewEntry[K any, V any](key K, value V) Entry[K, V]&lt;/div&gt;&lt;div&gt;&lt;br&gt;&lt;/div&gt;&lt;div&gt;Clone() Entry[K, V]&lt;/div&gt;&lt;div&gt;Equals(entry Entry[K, V]) bool&lt;br&gt;&lt;/div&gt;" style="text;strokeColor=none;fillColor=none;align=left;verticalAlign=top;spacingLeft=4;spacingRight=4;overflow=hidden;rotatable=0;points=[[0,0.5],[1,0.5]];portConstraint=eastwest;whiteSpace=wrap;html=1;fontFamily=Fira Code;fontSource=https%3A%2F%2Ffonts.googleapis.com%2Fcss%3Ffamily%3DFira%2BCode;" parent="WINF_wa8f1q5VdIjYKDe-8" vertex="1">
          <mxGeometry y="88" width="290" height="102" as="geometry" />
        </mxCell>
        <mxCell id="WINF_wa8f1q5VdIjYKDe-12" value="TreeNode[T any]" style="swimlane;fontStyle=1;align=center;verticalAlign=top;childLayout=stackLayout;horizontal=1;startSize=26;horizontalStack=0;resizeParent=1;resizeParentMax=0;resizeLast=0;collapsible=1;marginBottom=0;whiteSpace=wrap;html=1;fontFamily=Fira Code;fontSource=https%3A%2F%2Ffonts.googleapis.com%2Fcss%3Ffamily%3DFira%2BCode;" parent="1" vertex="1">
          <mxGeometry x="1178" y="1070" width="280" height="140" as="geometry" />
        </mxCell>
        <mxCell id="WINF_wa8f1q5VdIjYKDe-13" value="&amp;nbsp;&amp;nbsp;&amp;nbsp; value T&lt;br&gt;&amp;nbsp;&amp;nbsp; &amp;nbsp;left&amp;nbsp; *TreeNode[T]&lt;br&gt;&amp;nbsp;&amp;nbsp; &amp;nbsp;right *TreeNode[T]" style="text;strokeColor=none;fillColor=none;align=left;verticalAlign=middle;spacingLeft=4;spacingRight=4;overflow=hidden;rotatable=0;points=[[0,0.5],[1,0.5]];portConstraint=eastwest;whiteSpace=wrap;html=1;fontFamily=Fira Code;fontSource=https%3A%2F%2Ffonts.googleapis.com%2Fcss%3Ffamily%3DFira%2BCode;" parent="WINF_wa8f1q5VdIjYKDe-12" vertex="1">
          <mxGeometry y="26" width="280" height="54" as="geometry" />
        </mxCell>
        <mxCell id="WINF_wa8f1q5VdIjYKDe-14" value="" style="line;strokeWidth=1;fillColor=none;align=left;verticalAlign=middle;spacingTop=-1;spacingLeft=3;spacingRight=3;rotatable=0;labelPosition=right;points=[];portConstraint=eastwest;strokeColor=inherit;fontFamily=Fira Code;fontSource=https%3A%2F%2Ffonts.googleapis.com%2Fcss%3Ffamily%3DFira%2BCode;" parent="WINF_wa8f1q5VdIjYKDe-12" vertex="1">
          <mxGeometry y="80" width="280" height="8" as="geometry" />
        </mxCell>
        <mxCell id="WINF_wa8f1q5VdIjYKDe-15" value="TBC" style="text;strokeColor=none;fillColor=none;align=left;verticalAlign=top;spacingLeft=4;spacingRight=4;overflow=hidden;rotatable=0;points=[[0,0.5],[1,0.5]];portConstraint=eastwest;whiteSpace=wrap;html=1;fontFamily=Fira Code;fontSource=https%3A%2F%2Ffonts.googleapis.com%2Fcss%3Ffamily%3DFira%2BCode;" parent="WINF_wa8f1q5VdIjYKDe-12" vertex="1">
          <mxGeometry y="88" width="280" height="52" as="geometry" />
        </mxCell>
        <mxCell id="WINF_wa8f1q5VdIjYKDe-16" value="" style="endArrow=diamondThin;endFill=0;endSize=24;html=1;rounded=0;exitX=0.5;exitY=0;exitDx=0;exitDy=0;" parent="1" source="WINF_wa8f1q5VdIjYKDe-8" target="-sED9EeaokVKsFfiprO--44" edge="1">
          <mxGeometry width="160" relative="1" as="geometry">
            <mxPoint x="560" y="850" as="sourcePoint" />
            <mxPoint x="720" y="850" as="targetPoint" />
          </mxGeometry>
        </mxCell>
        <mxCell id="WINF_wa8f1q5VdIjYKDe-17" value="" style="endArrow=diamondThin;endFill=0;endSize=24;html=1;rounded=0;exitX=0.5;exitY=0;exitDx=0;exitDy=0;" parent="1" source="WINF_wa8f1q5VdIjYKDe-12" target="-sED9EeaokVKsFfiprO--40" edge="1">
          <mxGeometry width="160" relative="1" as="geometry">
            <mxPoint x="605" y="830" as="sourcePoint" />
            <mxPoint x="605" y="710" as="targetPoint" />
          </mxGeometry>
        </mxCell>
        <mxCell id="WINF_wa8f1q5VdIjYKDe-19" value="" style="endArrow=block;dashed=1;endFill=0;endSize=12;html=1;rounded=0;entryX=0.5;entryY=0;entryDx=0;entryDy=0;" parent="1" source="WINF_wa8f1q5VdIjYKDe-11" target="WINF_wa8f1q5VdIjYKDe-5" edge="1">
          <mxGeometry width="160" relative="1" as="geometry">
            <mxPoint x="508" y="1240" as="sourcePoint" />
            <mxPoint x="825" y="1370" as="targetPoint" />
            <Array as="points">
              <mxPoint x="485" y="1310" />
              <mxPoint x="1318" y="1310" />
            </Array>
          </mxGeometry>
        </mxCell>
        <mxCell id="WINF_wa8f1q5VdIjYKDe-20" value="" style="endArrow=block;dashed=1;endFill=0;endSize=12;html=1;rounded=0;" parent="1" source="WINF_wa8f1q5VdIjYKDe-15" target="WINF_wa8f1q5VdIjYKDe-1" edge="1">
          <mxGeometry width="160" relative="1" as="geometry">
            <mxPoint x="630" y="1120" as="sourcePoint" />
            <mxPoint x="790" y="1120" as="targetPoint" />
            <Array as="points">
              <mxPoint x="1318" y="1270" />
              <mxPoint x="965" y="1270" />
            </Array>
          </mxGeometry>
        </mxCell>
        <mxCell id="WINF_wa8f1q5VdIjYKDe-21" value="" style="endArrow=block;dashed=1;endFill=0;endSize=12;html=1;rounded=0;entryX=0.5;entryY=0;entryDx=0;entryDy=0;" parent="1" source="WINF_wa8f1q5VdIjYKDe-15" target="WINF_wa8f1q5VdIjYKDe-5" edge="1">
          <mxGeometry width="160" relative="1" as="geometry">
            <mxPoint x="630" y="1120" as="sourcePoint" />
            <mxPoint x="790" y="1120" as="targetPoint" />
            <Array as="points">
              <mxPoint x="1320" y="1270" />
              <mxPoint x="1320" y="1310" />
            </Array>
          </mxGeometry>
        </mxCell>
      </root>
    </mxGraphModel>
  </diagram>
</mxfile>
